HIERARCHY
ROOT SpineBase
{
  OFFSET 0.000000 0.000000 0.000000
  CHANNELS 6 Xposition Yposition Zposition Zrotation Xrotation Yrotation
  JOINT SpineMid
  {
    OFFSET 0.000000 31.802593 -0.000000
    CHANNELS 3 Zrotation Xrotation Yrotation
    JOINT SpineShoulder
    {
      OFFSET -0.027436 23.612521 -0.699574
      CHANNELS 3 Zrotation Xrotation Yrotation
      JOINT Neck
      {
        OFFSET -0.006575 7.800965 -0.480093
        CHANNELS 3 Zrotation Xrotation Yrotation
        JOINT Head
        {
          OFFSET -4.101861 12.463095 1.073911
          CHANNELS 3 Zrotation Xrotation Yrotation
          End Site
          {
            OFFSET 0 0 0
          }
        }
      }
      JOINT ShoulderLeft
      {
        OFFSET -16.686994 -4.644103 7.595001
        CHANNELS 3 Zrotation Xrotation Yrotation
        JOINT ElbowLeft
        {
          OFFSET -4.988012 -27.736740 3.306685
          CHANNELS 3 Zrotation Xrotation Yrotation
          JOINT WristLeft
          {
            OFFSET 0.126653 -22.229996 -3.425362
            CHANNELS 3 Zrotation Xrotation Yrotation
            JOINT HandLeft
            {
              OFFSET 0.652163 -7.973358 -0.128191
              CHANNELS 3 Zrotation Xrotation Yrotation
              JOINT HandTipLeft
              {
                OFFSET 0.322901 -7.873404 -0.053035
                CHANNELS 3 Zrotation Xrotation Yrotation
                End Site
                {
                  OFFSET 0 0 0
                }
              }
              JOINT ThumbLeft
              {
                OFFSET -1.908157 -1.720594 -1.753709
                CHANNELS 3 Zrotation Xrotation Yrotation
                End Site
                {
                  OFFSET 0 0 0
                }
              }
            }
          }
        }
      }
      JOINT ShoulderRight
      {
        OFFSET 12.672796 -4.440598 -8.741234
        CHANNELS 3 Zrotation Xrotation Yrotation
        JOINT ElbowRight
        {
          OFFSET 7.250198 -27.645043 -3.849874
          CHANNELS 3 Zrotation Xrotation Yrotation
          JOINT WristRight
          {
            OFFSET 0.256989 -22.150498 -5.003064
            CHANNELS 3 Zrotation Xrotation Yrotation
            JOINT HandRight
            {
              OFFSET -0.310220 -8.079274 -0.029575
              CHANNELS 3 Zrotation Xrotation Yrotation
              JOINT HandTipRight
              {
                OFFSET 0.055754 -6.084025 -0.638265
                CHANNELS 3 Zrotation Xrotation Yrotation
                End Site
                {
                  OFFSET 0 0 0
                }
              }
              JOINT ThumbRight
              {
                OFFSET 3.158152 -0.510004 -1.064143
                CHANNELS 3 Zrotation Xrotation Yrotation
                End Site
                {
                  OFFSET 0 0 0
                }
              }
            }
          }
        }
      }
    }
  }
  JOINT HipLeft
  {
    OFFSET -5.870573 0.018475 -0.362474
    CHANNELS 3 Zrotation Xrotation Yrotation
    JOINT KneeLeft
    {
      OFFSET 4.101035 -37.428579 7.589758
      CHANNELS 3 Zrotation Xrotation Yrotation
      JOINT AnkleLeft
      {
        OFFSET 8.086686 -35.800336 10.905273
        CHANNELS 3 Zrotation Xrotation Yrotation
        JOINT FootLeft
        {
          OFFSET -0.938765 -8.315368 -4.587881
          CHANNELS 3 Zrotation Xrotation Yrotation
          End Site
          {
            OFFSET 0 0 0
          }
        }
      }
    }
  }
  JOINT HipRight
  {
    OFFSET 6.361843 1.195796 -6.050159
    CHANNELS 3 Zrotation Xrotation Yrotation
    JOINT KneeRight
    {
      OFFSET 8.465819 -35.114024 1.075548
      CHANNELS 3 Zrotation Xrotation Yrotation
      JOINT AnkleRight
      {
        OFFSET 6.246048 -39.121312 11.422234
        CHANNELS 3 Zrotation Xrotation Yrotation
        JOINT FootRight
        {
          OFFSET -0.867574 -8.229260 -4.078536
          CHANNELS 3 Zrotation Xrotation Yrotation
          End Site
          {
            OFFSET 0 0 0
          }
        }
      }
    }
  }
}
MOTION
Frames: 16
Frame Time: 0.033333
-27.431313 81.713717 343.450716 -0.000000 -0.000000 24.936930 0.000000 0.000000 -24.936930 -0.000000 0.000000 0.000000 -0.000000 0.000000 0.000000 0.000000 0.000000 0.000000 -0.000000 0.000000 0.000000 -0.000000 0.000000 0.000000 -0.000000 0.000000 0.000000 -0.000000 0.000000 0.000000 0.000000 0.000000 0.000000 0.000000 0.000000 0.000000 -0.000000 0.000000 0.000000 -0.000000 0.000000 0.000000 -0.000000 0.000000 0.000000 -0.000000 0.000000 0.000000 0.000000 0.000000 0.000000 0.000000 0.000000 0.000000 0.000000 0.000000 -24.936930 -0.000000 0.000000 0.000000 -0.000000 0.000000 0.000000 0.000000 0.000000 0.000000 0.000000 0.000000 -24.936930 -0.000000 0.000000 0.000000 -0.000000 0.000000 0.000000 0.000000 0.000000 0.000000
-27.750698 81.678053 343.544167 -0.171499 -0.218626 25.262312 0.248400 0.124527 -25.262909 -0.000000 0.000000 0.000000 -0.000000 0.000000 0.000000 0.000000 0.000000 0.000000 1.011701 -0.865816 0.284160 -0.155674 0.407231 -0.412646 2.700938 -3.142246 -0.130658 -3.655285 2.232956 0.413011 0.000000 0.000000 0.000000 0.000000 0.000000 0.000000 -0.000000 0.000000 0.000000 -0.000000 0.000000 0.000000 -1.756357 1.651729 -0.031656 1.757998 -1.649982 0.082293 0.000000 0.000000 0.000000 0.000000 0.000000 0.000000 0.248400 0.124527 -25.262909 -0.000000 0.000000 0.000000 -0.223876 1.235323 -0.013451 0.000000 0.000000 0.000000 0.248400 0.124527 -25.262909 -0.000000 0.000000 0.000000 -1.124474 -0.684486 0.623965 0.000000 0.000000 0.000000
-28.020925 81.647457 343.615487 -0.311317 -0.401744 25.564292 0.454205 0.228066 -25.566287 -0.000000 0.000000 0.000000 1.136741 0.126796 -0.057287 0.000000 0.000000 0.000000 1.874422 -1.642311 0.546384 -0.315308 0.737705 -0.769494 4.575365 -5.494894 -0.119709 -6.193464 3.920814 0.867923 0.000000 0.000000 0.000000 0.000000 0.000000 0.000000 -0.000000 0.000000 0.000000 -0.000000 0.000000 0.000000 -3.444288 3.095648 -0.013167 3.450018 -3.089258 0.199323 0.000000 0.000000 0.000000 0.000000 0.000000 0.000000 0.454205 0.228066 -25.566287 -0.000000 0.000000 0.000000 -0.370089 2.209829 -0.037765 0.000000 0.000000 0.000000 1.281079 0.121665 -25.481798 -0.792221 -0.259665 -0.088807 -1.895604 -1.205876 1.050375 0.000000 0.000000 0.000000
-28.241994 81.621931 343.664675 -0.419545 -0.549466 25.842565 0.617108 0.311619 -25.846255 -0.000000 0.000000 0.000000 1.585248 0.170860 -0.082350 0.000000 0.000000 0.000000 2.585543 -2.330026 0.781222 -0.503725 1.004505 -1.063026 5.605609 -7.027027 -0.074357 -7.567077 5.022602 1.213925 0.000000 0.000000 0.000000 0.000000 0.000000 0.000000 -0.000000 0.000000 0.000000 -0.000000 0.000000 0.000000 -5.016756 4.275320 0.041443 5.134784 -3.227807 0.337779 0.000000 0.000000 0.000000 0.000000 0.000000 0.000000 0.617108 0.311619 -25.846255 -0.000000 0.000000 0.000000 -0.440238 2.931361 -0.075746 0.000000 0.000000 0.000000 1.744971 0.146587 -25.734973 -1.087667 -0.341003 -0.119029 -2.300262 -1.545898 1.277932 0.000000 0.000000 0.000000
-28.413905 81.601473 343.691731 -0.496252 -0.661882 26.096833 0.736828 0.376078 -26.102117 -0.000000 0.000000 0.000000 1.954473 0.202229 -0.104716 0.000000 0.000000 0.000000 3.143063 -2.929861 0.984034 -0.739109 1.220557 -1.287288 5.800752 -7.749319 -0.061359 -7.763436 5.538962 1.359307 0.000000 0.000000 0.000000 0.000000 0.000000 0.000000 -0.000000 0.000000 0.000000 -0.000000 0.000000 0.000000 -6.428197 5.144467 0.114709 6.271294 -3.792659 0.478761 0.000000 0.000000 0.000000 0.000000 0.000000 0.000000 1.655204 0.361733 -25.896675 -0.832436 -0.388132 -0.214175 -0.435487 3.406088 -0.129245 0.000000 0.000000 0.000000 2.090499 0.150651 -25.973618 -1.315698 -0.390090 -0.139201 -2.331726 -1.694012 1.306638 0.000000 0.000000 0.000000
-28.536658 81.586084 343.696655 -0.541484 -0.739058 26.326801 0.813104 0.422219 -26.333289 -0.381350 -0.765003 -0.026649 2.626056 0.986436 -0.132651 0.000000 0.000000 0.000000 3.925230 -2.677814 1.125140 -1.031122 1.397172 -1.438482 5.177157 -7.680749 -0.103382 -6.783742 5.476344 1.270174 0.000000 0.000000 0.000000 0.000000 0.000000 0.000000 0.381028 0.765163 0.021559 -0.000000 0.000000 0.000000 -7.638189 5.670450 0.188417 7.047689 -4.034991 0.593865 0.000000 0.000000 0.000000 0.000000 0.000000 0.000000 1.817789 0.394460 -26.109287 -0.914399 -0.417135 -0.234491 -0.356582 3.638183 -0.199245 0.000000 0.000000 0.000000 2.317297 0.135855 -26.196837 -1.476133 -0.406954 -0.149021 -1.989186 -1.647516 1.137050 0.000000 0.000000 0.000000
-28.539440 81.580364 343.643730 -0.489908 -0.742827 26.559093 0.770363 0.445356 -26.565263 -0.385148 -0.843785 -0.027238 2.946618 1.083596 -0.162347 0.000000 0.000000 0.000000 4.181690 -3.073203 1.255566 -1.752586 1.697608 -1.451130 3.278429 -6.275228 -0.234355 -3.488985 4.781456 0.799067 0.000000 0.000000 0.000000 0.000000 0.000000 0.000000 0.384788 0.843949 0.021568 -0.000000 0.000000 0.000000 -8.770756 6.072666 0.264093 6.920331 -3.150645 0.735678 0.000000 0.000000 0.000000 0.000000 0.000000 0.000000 1.703555 0.416856 -26.357537 -0.848845 -0.388696 -0.217627 -0.140004 3.567290 -0.315785 0.000000 0.000000 0.000000 2.239741 0.103368 -26.443032 -1.467956 -0.347999 -0.133726 -0.485747 -0.725435 0.314996 0.000000 0.000000 0.000000
-28.519795 81.581933 343.581209 -0.423801 -0.723620 26.746095 0.704133 0.455445 -26.751570 -0.393025 -0.898326 -0.028013 3.033083 1.162606 -0.165131 0.000000 0.000000 0.000000 4.272713 -3.366167 1.337927 -2.230698 1.774489 -1.434952 0.889938 -4.639779 -0.282707 0.554926 4.174859 0.335974 0.000000 0.000000 0.000000 0.000000 0.000000 0.000000 0.392634 0.898497 0.021853 -0.000000 0.000000 0.000000 -9.445373 5.780616 0.289498 7.999356 -2.332581 0.741963 0.000000 0.000000 0.000000 0.000000 0.000000 0.000000 1.534070 0.410607 -26.566951 -0.762364 -0.331018 -0.193094 0.226374 3.535441 -0.522364 0.000000 0.000000 0.000000 2.096223 0.033792 -26.653609 -1.433315 -0.247554 -0.107001 1.507006 0.693652 -0.827839 0.000000 0.000000 0.000000
-28.536253 81.578620 343.538564 -0.416740 -0.715244 26.895862 0.695234 0.449328 -26.901189 -0.418756 -0.928599 -0.029933 3.005575 1.198369 -0.158067 0.000000 0.000000 0.000000 4.245308 -3.561708 1.377575 -2.605199 1.777937 -1.377866 -1.994401 -2.567468 -0.195442 3.792501 1.946775 0.036327 0.000000 0.000000 0.000000 0.000000 0.000000 0.000000 0.418326 0.928793 0.023149 -0.000000 0.000000 0.000000 -9.776324 5.175685 0.278982 6.445030 -2.379470 0.758119 0.000000 0.000000 0.000000 0.000000 0.000000 0.000000 1.505189 0.374928 -26.720872 -0.756914 -0.297681 -0.188109 0.355554 3.100267 -0.547892 0.000000 0.000000 0.000000 2.076934 -0.040380 -26.816406 -1.454029 -0.186224 -0.092077 5.879359 -2.208785 -2.608725 0.000000 0.000000 0.000000
-28.543688 81.576554 343.491126 -0.416199 -0.694791 26.991583 0.686218 0.430188 -26.996683 -0.448537 -0.942847 -0.032074 3.036970 1.144057 -0.178229 0.000000 0.000000 0.000000 4.053827 -3.690814 1.376377 -2.720242 1.807447 -1.312189 -5.556128 0.286981 0.162810 8.043408 -1.129962 -0.187927 0.000000 0.000000 0.000000 0.000000 0.000000 0.000000 0.448070 0.943069 0.024695 -0.000000 0.000000 0.000000 -9.952148 4.305545 0.245322 5.208952 -2.583702 0.730499 0.000000 0.000000 0.000000 0.000000 0.000000 0.000000 1.474869 0.328787 -26.820794 -0.749564 -0.265299 -0.182848 0.702841 2.916017 -0.725259 0.000000 0.000000 0.000000 2.058337 -0.086392 -26.917205 -1.457320 -0.160499 -0.085636 3.875189 -3.250593 -1.494814 0.000000 0.000000 0.000000
-28.552730 81.578661 343.461469 -0.425285 -0.668739 27.053297 0.682921 0.402115 -27.058175 -0.486825 -0.924724 -0.034652 2.949788 1.031236 -0.191385 0.000000 0.000000 0.000000 3.700951 -3.657265 1.311853 -2.560692 1.732384 -1.224250 -8.945050 2.896942 0.687391 12.565935 -4.521471 -0.174754 0.000000 0.000000 0.000000 0.000000 0.000000 0.000000 0.486330 0.924985 0.026797 -0.000000 0.000000 0.000000 -9.780283 2.686476 0.162060 4.636289 -1.569326 0.655607 0.000000 0.000000 0.000000 0.000000 0.000000 0.000000 0.682921 0.402115 -27.058175 -0.000000 0.000000 0.000000 0.483277 1.742322 -0.467008 0.000000 0.000000 0.000000 2.046805 -0.134527 -26.982538 -1.458899 -0.140561 -0.080611 1.383136 1.901633 -0.902695 0.000000 0.000000 0.000000
-28.544521 81.588891 343.436271 -0.410838 -0.651133 27.100185 0.662368 0.392467 -27.104789 -0.503046 -0.919507 -0.035753 2.672948 1.045265 -0.154452 0.000000 0.000000 0.000000 3.475519 -3.335104 1.210850 -2.835245 1.524672 -1.046472 -12.000520 5.113668 1.249479 15.581335 -7.661193 -0.042527 0.000000 0.000000 0.000000 0.000000 0.000000 0.000000 0.502537 0.919786 0.027683 -0.000000 0.000000 0.000000 -9.604909 1.819704 0.117874 3.346805 -1.333239 0.676888 0.000000 0.000000 0.000000 0.000000 0.000000 0.000000 0.662368 0.392467 -27.104789 -0.000000 0.000000 0.000000 -0.000000 0.000000 0.000000 0.000000 0.000000 0.000000 1.973094 -0.143071 -27.035579 -0.752276 0.294969 0.183836 -3.455470 9.654646 0.286834 0.000000 0.000000 0.000000
-28.516054 81.597927 343.415343 -0.375977 -0.626052 27.131523 0.620118 0.385685 -27.135664 -0.503381 -0.904311 -0.035697 2.295522 1.042534 -0.111325 0.000000 0.000000 0.000000 3.195433 -2.934213 1.087495 -3.097414 1.409070 -0.848444 -13.739202 7.311901 1.795181 18.008993 -10.119641 0.269276 0.000000 0.000000 0.000000 0.000000 0.000000 0.000000 0.502880 0.904590 0.027755 -0.000000 0.000000 0.000000 -9.166510 0.061114 0.036068 2.061640 0.698384 0.766599 0.000000 0.000000 0.000000 0.000000 0.000000 0.000000 0.620118 0.385685 -27.135664 -0.000000 0.000000 0.000000 -0.798812 -1.095680 0.559308 0.000000 0.000000 0.000000 1.837296 -0.143827 -27.077577 -0.606761 0.285903 0.205581 -9.481104 23.384374 3.025340 0.000000 0.000000 0.000000
-28.485516 81.607638 343.407764 -0.349022 -0.606188 27.176467 0.587368 0.379841 -27.180261 -0.499817 -0.889482 -0.035373 1.846832 1.055509 -0.056689 0.000000 0.000000 0.000000 2.913891 -2.411347 0.941825 -3.360938 1.385415 -0.633594 -14.588886 9.513214 2.304740 19.317787 -12.211729 0.643550 0.000000 0.000000 0.000000 0.000000 0.000000 0.000000 0.499328 0.889757 0.027616 -0.000000 0.000000 0.000000 -8.400912 -1.102088 -0.007796 -0.395236 1.650677 0.987363 0.000000 0.000000 0.000000 0.000000 0.000000 0.000000 0.587368 0.379841 -27.180261 -0.000000 0.000000 0.000000 -1.832769 -1.461316 1.158921 0.000000 0.000000 0.000000 1.714168 -0.141512 -27.132446 -0.489005 0.284003 0.220475 -16.309137 29.556351 7.313469 0.000000 0.000000 0.000000
-28.435434 81.619934 343.397095 -0.301453 -0.573855 27.237251 0.530677 0.372245 -27.240485 -0.488470 -0.868380 -0.034480 1.446228 1.001115 -0.027514 0.000000 0.000000 0.000000 2.605680 -1.921999 0.801394 -3.408790 1.742933 -0.454182 -14.436878 10.941704 2.543470 18.994143 -12.350143 0.858118 0.000000 0.000000 0.000000 0.000000 0.000000 0.000000 0.488004 0.868642 0.027079 -0.000000 0.000000 0.000000 -7.204710 -2.091178 -0.024896 -1.739260 2.561918 1.069762 0.000000 0.000000 0.000000 0.000000 0.000000 0.000000 0.530677 0.372245 -27.240485 -0.000000 0.000000 0.000000 -2.647114 -0.941434 1.548185 0.000000 0.000000 0.000000 1.526607 -0.144451 -27.209019 -0.343637 0.349926 0.246606 -19.406888 32.179992 9.392004 0.000000 0.000000 0.000000
-28.372692 81.623827 343.410276 -0.236147 -0.572575 27.233817 0.472002 0.401028 -27.236648 -0.471116 -0.852702 -0.033203 0.470674 0.852946 0.026194 0.000000 0.000000 0.000000 2.321232 -1.466466 0.674286 -3.393054 2.102347 -0.300296 -13.070774 11.493435 2.447890 17.226061 -14.169251 0.771203 0.000000 0.000000 0.000000 0.000000 0.000000 0.000000 0.470674 0.852946 0.026194 -0.000000 0.000000 0.000000 -5.875024 -3.724381 -0.026552 -4.275349 5.209159 1.515379 0.000000 0.000000 0.000000 0.000000 0.000000 0.000000 0.472002 0.401028 -27.236648 -0.000000 0.000000 0.000000 -3.354256 -0.973685 1.935098 0.000000 0.000000 0.000000 1.332414 -0.078415 -27.216793 -0.162738 0.387795 0.271507 -20.463261 27.541629 9.956522 0.000000 0.000000 0.000000
